General
Complete name : C:UFC.105.Couture.vs.Vera.DSR.XviD-XWT.avi
Format : AVI
Format/Info : Audio Video Interleave
File size : 1.31 GiB
Duration : 2h 40mn
Overall bit rate : 1 163 Kbps

Video
Format : MPEG-4 Visual
Format profile : Streaming Video@L1
Format settings, BVOP : Yes
Format settings, QPel : No
Format settings, GMC : No warppoints
Format settings, Matrix : Default
Codec ID : XVID
Codec ID/Hint : XviD
Duration : 2h 40mn
Bit rate : 1 023 Kbps
Width : 640 pixels
Height : 368 pixels
Display aspect ratio : 16/9
Frame rate : 25.000 fps
Resolution : 24 bits
Colorimetry : 4:2:0
Scan type : Progressive
Bits/(Pixel*Frame) : 0.174
Stream size : 1.15 GiB (88%)
Writing library : XviD 1.1.2 (UTC 2006-11-01)

Audio
Format : MPEG Audio
Format version : Version 1
Format profile : Layer 3
Codec ID : 55
Codec ID/Hint : MP3
Duration : 2h 40mn
Bit rate mode : Constant
Bit rate : 128 Kbps
Channel(s) : 2 channels
Sampling rate : 44.1 KHz
Resolution : 16 bits
Stream size : 147 MiB (11%)
Alignment : Aligned on interleaves
Interleave, duration : 26 ms (0.65 video frame)
Interleave, preload duration : 809 ms


Screenshots: 
http://uptiki.com/images/zybb9ieyyl2dbas979ds.png 
http://uptiki.com/images/xnu2qyj307k53mnyry.png 
http://uptiki.com/images/918ep14hh2hxgr8znqqu.png 
http://uptiki.com/images/1s9ouqmol3l4zvdrd2i.png 
http://uptiki.com/images/253cz94vonpyi6i08b7l.png 
http://uptiki.com/images/8mujyf36a49xrjb0ex20.png 
http://uptiki.com/images/jgmgywezrcfrcn53sqz.png 
http://uptiki.com/images/haaacywmx8yj5cla7f4.png



UFC UFC 105 Couture vs Vera
Data: 14 November 2009
Venue: Manchester Evening News Arena
City: England Manchester, England




Main-Event:

205 lbs. Randy "The Natural" Couture(16-10) vs Brandon "The Truth" Vera(11-3)


Main Card:

170 lbs. Dan "The Outlaw" Hardy(22-6-0,1NC) vs Mike "Quick" Swick(14-2)
185 lbs. Michael "The Count" Bisping(17-2) vs Denis Kang(32-11-1,2NC)
170 lbs. James "Lightning" Wilks(6-2) vs Matt "The Immortal" Brown(10-7)
155 lbs. Ross "The Real Deal" Pearson(9-3) vs Aaron Riley(28-11-1)


Preliminary Card: (May NOT Be Televised) :

170 lbs. "Relentless" Paul Taylor(10-4-1) vs John "The Hitman" Hathaway(11-0)
205 lbs. Alexander Gustafsson(8-0) vs Jared Hamman(10-1)
170 lbs. Nick "Slick" Osipczak(4-0) vs Matt "The Riddler" Riddle(3-0)
155 lbs. Paul "Tellys" Kelly(10-1) vs Dennis Siver(14-6)
155 lbs. Andre Winner(9-3) vs Rolando "The Crazy Cuban" Delgado(6-4-1)
155 lbs. Terry Etim(13-2) vs Shannon Gugerty(12-3)